
<svg xmlns="http://www.w3.org/2000/svg" viewBox="0 0 512 512">
  <rect x="16" y="16" width="480" height="480" rx="90" fill="#061B3A"/>
  <path d="M120 210 A180 180 0 0 1 410 150" fill="none" stroke="#9AFB2E" stroke-width="18" stroke-linecap="round"/>
  <path d="M150 320 A180 180 0 0 0 300 430" fill="none" stroke="#6DFF2A" stroke-width="18" stroke-linecap="round"/>
  <path d="M95 275 L210 160 L320 275" fill="none" stroke="white" stroke-width="18" stroke-linecap="round" stroke-linejoin="round"/>
  <rect x="170" y="260" width="26" height="26" fill="#FFD21E"/>
  <rect x="208" y="260" width="26" height="26" fill="#FFD21E"/>
  <rect x="170" y="298" width="26" height="26" fill="#FFD21E"/>
  <rect x="208" y="298" width="26" height="26" fill="#FFD21E"/>
  <line x1="260" y1="275" x2="260" y2="390" stroke="#D9D9D9" stroke-width="10"/>
  <polygon points="250,170 320,170 350,205 280,205" fill="#58A6FF"/>
  <polygon points="325,170 395,170 425,205 355,205" fill="#3E82FF"/>
  <polygon points="270,215 340,215 370,250 300,250" fill="#3E82FF"/>
  <polygon points="345,215 415,215 445,250 375,250" fill="#2F5FFF"/>
  <polygon points="360,270 430,270 385,380 450,380 330,470 365,365 300,365" fill="#A8FF1E"/>
</svg>
